<svg xmlns="http://www.w3.org/2000/svg" width="34.281" height="30.806" viewBox="0 0 34.281 30.806">
  <g id="adventist-symbol-tm--black" transform="translate(-30 -47)">
    <path id="Path_1" data-name="Path 1" d="M47.818,75.794c0,.125.144.126.169,0a4.962,4.962,0,0,1,.933-2.143H47.9a.084.084,0,0,0-.084.084ZM55.14,62.938c.012,1.339-.373,2.489-2.814,4.933L50.395,69.8a13.628,13.628,0,0,0-2.136,2.485h1.907l.226-.226,2.77-2.776c2.307-2.309,2.629-4.752,2.136-6.345-.042-.135-.159-.144-.158,0Zm-2.431,8.168-2.314,2.318c-1.4,1.4-2.577,2.61-2.577,3.931v.368c0,.1.124.116.162.011.433-1.183,1.878-2.445,4.528-2,0,0,11.546,2,11.643,2.006a.11.11,0,0,0,.1-.188c-.044-.052-5.374-5.387-5.374-5.387Zm-8.353,2.545a.084.084,0,0,1-.084-.084v-1.2a.084.084,0,0,1,.084-.084h2.021a.084.084,0,0,0,.084-.084c-.005-1.074-.814-1.8-4.055-1.239l-7,1.2s-5.33,5.335-5.374,5.387a.11.11,0,0,0,.1.188c.1-.009,11.643-2.006,11.643-2.006,2.65-.447,4.1.815,4.528,2,.038.1.162.089.162-.011V73.735a.084.084,0,0,0-.084-.084H44.356ZM41.129,56.937c-2.307,2.309-2.629,4.752-2.136,6.345.042.135.159.144.158,0-.012-1.339.373-2.489,2.814-4.933l5.263-5.266c1.4-1.4,2.577-2.61,2.577-3.931V47.094c0-.126-.144-.126-.17,0-.346,1.682-1.018,2.345-2.4,3.732l-6.1,6.111ZM49.81,50.7c0-.125-.144-.126-.17,0-.346,1.682-1.016,2.356-2.4,3.743l-5.528,5.527c-2.682,2.685-3.146,5.283-1.782,6.953.091.111.189.044.13-.09-.9-2.043,1.261-4.209,2.291-5.239L47.233,56.7c1.4-1.4,2.577-2.61,2.577-3.931ZM41.863,63.44c-2.682,2.685-1.449,5.278.116,5.992.137.063.192-.049.087-.14-1.254-1.088-.874-2.918.7-4.5l4.458-4.463c1.4-1.4,2.577-2.61,2.577-3.931V54.341c0-.125-.144-.126-.169,0-.346,1.681-1.017,2.342-2.4,3.729Zm5.95,8.749c0,.125.144.126.169,0,.347-1.681,1.017-2.356,2.4-3.743l2.2-2.193c2.682-2.685,3.146-5.283,1.782-6.953-.091-.111-.189-.045-.129.09.9,2.043-1.261,4.208-2.291,5.239L50.39,66.183c-1.4,1.4-2.577,2.61-2.577,3.931Zm2.578-7.371c-1.386,1.387-2.057,2.048-2.4,3.729-.026.126-.169.126-.169,0V66.487c0-1.321,1.176-2.529,2.577-3.931l1.126-1.128c1.578-1.58,1.959-3.409.7-4.5-.1-.091-.05-.2.087-.14,1.565.714,2.8,3.307.115,5.992Zm12.777,8.514h.259l.3.8.3-.8h.259v1.024H64.1v-.791h-.013l-.285.791h-.155l-.285-.791h-.013v.791h-.181Zm-.6.156h-.3v-.156h.79v.156h-.311v.869h-.181v-.869Z" fill-rule="evenodd"/>
  </g>
</svg>
